<svg id="visual" viewBox="0 0 900 30" width="900" height="30" xmlns="http://www.w3.org/2000/svg" xmlns:xlink="http://www.w3.org/1999/xlink" version="1.1"><path d="M0 2L11.5 6.3C23 10.7 46 19.3 69 23.7C92 28 115 28 138.2 23.5C161.3 19 184.7 10 207.8 8C231 6 254 11 277 11.3C300 11.7 323 7.3 346 8.2C369 9 392 15 415.2 14.7C438.3 14.3 461.7 7.7 484.8 8.3C508 9 531 17 554 21.2C577 25.3 600 25.7 623 22.5C646 19.3 669 12.7 692.2 9.8C715.3 7 738.7 8 761.8 9.5C785 11 808 13 831 12.3C854 11.7 877 8.3 888.5 6.7L900 5L900 0L888.5 0C877 0 854 0 831 0C808 0 785 0 761.8 0C738.7 0 715.3 0 692.2 0C669 0 646 0 623 0C600 0 577 0 554 0C531 0 508 0 484.8 0C461.7 0 438.3 0 415.2 0C392 0 369 0 346 0C323 0 300 0 277 0C254 0 231 0 207.8 0C184.7 0 161.3 0 138.2 0C115 0 92 0 69 0C46 0 23 0 11.5 0L0 0Z" fill="#dc3545" stroke-linecap="round" stroke-linejoin="miter"></path></svg>